<svg width="32" height="32" viewBox="0 0 32 32" fill="none" xmlns="http://www.w3.org/2000/svg">
<g clip-path="url(#clip0_33_1739)">
<path d="M16 32C24.8366 32 32 24.8366 32 16C32 7.16344 24.8366 0 16 0C7.16344 0 0 7.16344 0 16C0 24.8366 7.16344 32 16 32Z" fill="#0D1E30"/>
<g filter="url(#filter0_d_33_1739)">
<path d="M15.7251 6.05995C16.2041 5.81295 16.7891 6.38395 16.5351 6.85495C16.3861 7.23895 15.8251 7.34095 15.5391 7.04795C15.2361 6.76795 15.3351 6.21195 15.7251 6.05895V6.05995ZM10.5701 6.60595C10.8611 6.48795 11.2301 6.74995 11.2001 7.06295C11.2301 7.40095 10.8101 7.65095 10.5131 7.48995C10.1201 7.33995 10.1651 6.71195 10.5701 6.60595ZM21.1281 7.49895C20.6731 7.44495 20.6011 6.74095 21.0381 6.59895C21.3781 6.43695 21.6901 6.74195 21.7401 7.05895C21.6681 7.32895 21.4381 7.57695 21.1281 7.49895ZM11.7431 8.76395C12.2301 8.46095 12.9241 8.91195 12.8491 9.46895C12.8241 10.0299 12.0661 10.3559 11.6381 9.97595C11.2241 9.67795 11.2871 8.99395 11.7431 8.76395ZM19.1731 9.08595C19.3901 8.53595 20.2701 8.51795 20.5171 9.05395C20.7621 9.47095 20.4611 9.98795 20.0261 10.1299C19.4491 10.2359 18.9021 9.62195 19.1731 9.08595ZM15.1041 10.0989C15.0991 9.62495 15.5371 9.27295 15.9941 9.23995C16.2981 9.29995 16.6281 9.42695 16.7581 9.72795C17.0011 10.1439 16.7851 10.7149 16.3481 10.9059C16.1481 11.0159 15.9101 10.9749 15.6921 10.9619C15.3591 10.8019 15.0781 10.4849 15.1041 10.0989ZM7.4381 10.7889C7.88311 10.5189 8.4831 11.0089 8.3141 11.4849C8.2221 11.8959 7.6601 12.0629 7.3391 11.8009C6.99611 11.5549 7.0501 10.9639 7.4391 10.7879L7.4381 10.7889ZM23.9001 10.7869C24.2771 10.4989 24.9001 10.8299 24.8541 11.2979C24.8801 11.7249 24.3411 12.0479 23.9671 11.8279C23.5551 11.6449 23.5121 11.0209 23.9001 10.7879V10.7869ZM17.2601 11.6379C17.8821 11.4179 18.6221 11.6809 18.9761 12.2279C19.4441 12.8949 19.1961 13.9109 18.4691 14.2939C17.7171 14.7469 16.6181 14.3639 16.3391 13.5359C16.0241 12.7959 16.4841 11.8699 17.2591 11.6379H17.2601ZM13.6071 11.7109C14.2971 11.3909 15.2261 11.6589 15.5591 12.3529C15.9511 13.0289 15.6481 13.9699 14.9471 14.3189C14.2451 14.7119 13.2541 14.4139 12.9151 13.6889C12.5341 12.9869 12.8721 12.0339 13.6071 11.7109ZM9.9501 12.9399C10.0031 12.5029 10.4221 12.2179 10.8451 12.1879C11.0657 12.2112 11.2719 12.3087 11.4299 12.4644C11.5879 12.62 11.6885 12.8247 11.7151 13.0449C11.6851 13.4949 11.3321 13.9329 10.8481 13.9309C10.3151 13.9759 9.8481 13.4539 9.9501 12.9399ZM20.7521 12.2839C21.2991 11.9709 22.0581 12.4259 22.0341 13.0439C22.0711 13.6989 21.2311 14.1599 20.6871 13.7759C20.1211 13.4559 20.1651 12.5559 20.7521 12.2839ZM12.1221 14.5909C12.7601 14.4179 13.4921 14.7139 13.8051 15.2919C14.1481 15.8739 14.0081 16.6819 13.4751 17.11C12.7901 17.736 11.5291 17.4839 11.1651 16.6299C10.7461 15.8469 11.2551 14.7969 12.1211 14.5899L12.1221 14.5909ZM19.0491 14.5879C19.6701 14.4129 20.4001 14.6479 20.7341 15.2049C21.1761 15.8419 20.9651 16.7929 20.3081 17.2029C19.6181 17.6799 18.5521 17.4299 18.1721 16.6839C17.7121 15.9129 18.1751 14.8229 19.0491 14.5879ZM8.0091 15.3139C8.5611 15.1089 9.17311 15.7079 8.94911 16.2469C8.81311 16.7369 8.11011 16.9189 7.7471 16.5569C7.3221 16.2169 7.4791 15.4619 8.0091 15.3139ZM22.9781 16.096C22.9677 15.8758 23.0447 15.6605 23.1923 15.4968C23.3398 15.3331 23.5461 15.2344 23.7661 15.2219C24.1441 15.2819 24.5121 15.582 24.4821 15.9869C24.5171 16.5219 23.8621 16.885 23.3981 16.634C23.1811 16.525 23.0701 16.306 22.9781 16.096ZM5.29411 15.5799C5.62611 15.4369 6.0371 15.7199 5.9611 16.0829C5.9431 16.4939 5.3261 16.6529 5.1001 16.3089C4.9001 16.0699 5.02011 15.7029 5.29411 15.5789V15.5799ZM26.2431 15.5709C26.4771 15.4079 26.8531 15.5249 26.9451 15.7939C27.1021 16.0879 26.8141 16.4899 26.4781 16.4409C26.0061 16.4829 25.8541 15.7759 26.2431 15.5709ZM13.9261 17.544C14.8001 17.321 15.7401 18.0379 15.7461 18.9239C15.8021 19.8189 14.8761 20.6119 13.9821 20.4059C13.2901 20.2959 12.7471 19.6399 12.7701 18.9529C12.7681 18.2949 13.2721 17.683 13.9261 17.544ZM17.3881 17.5429C18.2751 17.2989 19.2431 18.0289 19.2291 18.9349C19.2761 19.8129 18.3791 20.58 17.5031 20.405C16.6781 20.301 16.0701 19.4099 16.3001 18.6219C16.4161 18.0979 16.8621 17.6719 17.3881 17.5419V17.5429ZM10.7121 18.0879C11.3261 17.9849 11.9021 18.6579 11.6531 19.2319C11.4711 19.844 10.5671 20.0089 10.1671 19.5099C9.6991 19.03 10.0491 18.1539 10.7121 18.0879ZM20.8661 18.1149C21.4141 17.8889 22.0861 18.3549 22.0441 18.9399C22.0661 19.5829 21.2361 20.0269 20.7011 19.6509C20.0941 19.3139 20.2051 18.3209 20.8661 18.1149ZM23.7041 20.915C23.4901 20.522 23.8791 20.0009 24.3241 20.0739C24.5441 20.0699 24.6991 20.2409 24.8401 20.3849C24.8691 20.6179 24.9181 20.896 24.7211 21.075C24.4541 21.408 23.8491 21.313 23.7041 20.915ZM7.4361 20.183C7.8511 19.912 8.4481 20.3169 8.3541 20.7929C8.3041 21.2159 7.7641 21.4569 7.4091 21.2169C7.0271 20.9999 7.0411 20.3809 7.4361 20.183ZM15.6291 21.0659C16.1721 20.8309 16.8641 21.2959 16.8121 21.884C16.8521 22.534 15.9971 22.9839 15.4661 22.594C14.8761 22.259 14.9751 21.2729 15.6291 21.0659ZM11.8351 21.9369C12.2971 21.6979 12.9171 22.111 12.8751 22.621C12.8891 23.0389 12.4751 23.395 12.0551 23.333C11.7081 23.326 11.4821 23.019 11.3701 22.728C11.3761 22.411 11.5091 22.0579 11.8351 21.9379V21.9369ZM19.5211 21.9449C19.9971 21.6549 20.6731 22.0709 20.6281 22.615C20.6401 23.1849 19.8761 23.549 19.4331 23.1749C19.0051 22.882 19.0571 22.1779 19.5211 21.9449ZM20.8581 25.195C20.6461 24.881 20.8951 24.502 21.2381 24.43C21.5151 24.485 21.8081 24.69 21.7491 25.004C21.7091 25.431 21.0751 25.5609 20.8581 25.1959V25.195ZM10.2471 24.922C10.3311 24.672 10.5351 24.4249 10.8341 24.49C11.2691 24.52 11.3981 25.166 11.0171 25.365C10.6751 25.5919 10.2771 25.281 10.2471 24.922ZM15.3671 25.209C15.4501 24.8389 15.9351 24.66 16.2551 24.856C16.4671 24.946 16.5291 25.1779 16.5831 25.3759C16.5546 25.4788 16.5279 25.5821 16.5031 25.686C16.3721 25.838 16.2031 25.9909 15.9851 25.986C15.5801 26.033 15.2141 25.5819 15.3661 25.209H15.3671Z" fill="#FCFCFD"/>
</g>
<path d="M15.7251 6.05995C16.2041 5.81295 16.7891 6.38395 16.5351 6.85495C16.3861 7.23895 15.8251 7.34095 15.5391 7.04795C15.2361 6.76795 15.3351 6.21195 15.7251 6.05895V6.05995ZM10.5701 6.60595C10.8611 6.48795 11.2301 6.74995 11.2001 7.06295C11.2301 7.40095 10.8101 7.65095 10.5131 7.48995C10.1201 7.33995 10.1651 6.71195 10.5701 6.60595ZM21.1281 7.49895C20.6731 7.44495 20.6011 6.74095 21.0381 6.59895C21.3781 6.43695 21.6901 6.74195 21.7401 7.05895C21.6681 7.32895 21.4381 7.57695 21.1281 7.49895ZM11.7431 8.76395C12.2301 8.46095 12.9241 8.91195 12.8491 9.46895C12.8241 10.0299 12.0661 10.3559 11.6381 9.97595C11.2241 9.67795 11.2871 8.99395 11.7431 8.76395ZM19.1731 9.08595C19.3901 8.53595 20.2701 8.51795 20.5171 9.05395C20.7621 9.47095 20.4611 9.98795 20.0261 10.1299C19.4491 10.2359 18.9021 9.62195 19.1731 9.08595ZM15.1041 10.0989C15.0991 9.62495 15.5371 9.27295 15.9941 9.23995C16.2981 9.29995 16.6281 9.42695 16.7581 9.72795C17.0011 10.1439 16.7851 10.7149 16.3481 10.9059C16.1481 11.0159 15.9101 10.9749 15.6921 10.9619C15.3591 10.8019 15.0781 10.4849 15.1041 10.0989ZM7.4381 10.7889C7.88311 10.5189 8.4831 11.0089 8.3141 11.4849C8.2221 11.8959 7.6601 12.0629 7.3391 11.8009C6.99611 11.5549 7.0501 10.9639 7.4391 10.7879L7.4381 10.7889ZM23.9001 10.7869C24.2771 10.4989 24.9001 10.8299 24.8541 11.2979C24.8801 11.7249 24.3411 12.0479 23.9671 11.8279C23.5551 11.6449 23.5121 11.0209 23.9001 10.7879V10.7869ZM17.2601 11.6379C17.8821 11.4179 18.6221 11.6809 18.9761 12.2279C19.4441 12.8949 19.1961 13.9109 18.4691 14.2939C17.7171 14.7469 16.6181 14.3639 16.3391 13.5359C16.0241 12.7959 16.4841 11.8699 17.2591 11.6379H17.2601ZM13.6071 11.7109C14.2971 11.3909 15.2261 11.6589 15.5591 12.3529C15.9511 13.0289 15.6481 13.9699 14.9471 14.3189C14.2451 14.7119 13.2541 14.4139 12.9151 13.6889C12.5341 12.9869 12.8721 12.0339 13.6071 11.7109ZM9.9501 12.9399C10.0031 12.5029 10.4221 12.2179 10.8451 12.1879C11.0657 12.2112 11.2719 12.3087 11.4299 12.4644C11.5879 12.62 11.6885 12.8247 11.7151 13.0449C11.6851 13.4949 11.3321 13.9329 10.8481 13.9309C10.3151 13.9759 9.8481 13.4539 9.9501 12.9399ZM20.7521 12.2839C21.2991 11.9709 22.0581 12.4259 22.0341 13.0439C22.0711 13.6989 21.2311 14.1599 20.6871 13.7759C20.1211 13.4559 20.1651 12.5559 20.7521 12.2839ZM12.1221 14.5909C12.7601 14.4179 13.4921 14.7139 13.8051 15.2919C14.1481 15.8739 14.0081 16.6819 13.4751 17.11C12.7901 17.736 11.5291 17.4839 11.1651 16.6299C10.7461 15.8469 11.2551 14.7969 12.1211 14.5899L12.1221 14.5909ZM19.0491 14.5879C19.6701 14.4129 20.4001 14.6479 20.7341 15.2049C21.1761 15.8419 20.9651 16.7929 20.3081 17.2029C19.6181 17.6799 18.5521 17.4299 18.1721 16.6839C17.7121 15.9129 18.1751 14.8229 19.0491 14.5879ZM8.0091 15.3139C8.5611 15.1089 9.17311 15.7079 8.94911 16.2469C8.81311 16.7369 8.11011 16.9189 7.7471 16.5569C7.3221 16.2169 7.4791 15.4619 8.0091 15.3139ZM22.9781 16.096C22.9677 15.8758 23.0447 15.6605 23.1923 15.4968C23.3398 15.3331 23.5461 15.2344 23.7661 15.2219C24.1441 15.2819 24.5121 15.582 24.4821 15.9869C24.5171 16.5219 23.8621 16.885 23.3981 16.634C23.1811 16.525 23.0701 16.306 22.9781 16.096ZM5.29411 15.5799C5.62611 15.4369 6.0371 15.7199 5.9611 16.0829C5.9431 16.4939 5.3261 16.6529 5.1001 16.3089C4.9001 16.0699 5.02011 15.7029 5.29411 15.5789V15.5799ZM26.2431 15.5709C26.4771 15.4079 26.8531 15.5249 26.9451 15.7939C27.1021 16.0879 26.8141 16.4899 26.4781 16.4409C26.0061 16.4829 25.8541 15.7759 26.2431 15.5709ZM13.9261 17.544C14.8001 17.321 15.7401 18.0379 15.7461 18.9239C15.8021 19.8189 14.8761 20.6119 13.9821 20.4059C13.2901 20.2959 12.7471 19.6399 12.7701 18.9529C12.7681 18.2949 13.2721 17.683 13.9261 17.544ZM17.3881 17.5429C18.2751 17.2989 19.2431 18.0289 19.2291 18.9349C19.2761 19.8129 18.3791 20.58 17.5031 20.405C16.6781 20.301 16.0701 19.4099 16.3001 18.6219C16.4161 18.0979 16.8621 17.6719 17.3881 17.5419V17.5429ZM10.7121 18.0879C11.3261 17.9849 11.9021 18.6579 11.6531 19.2319C11.4711 19.844 10.5671 20.0089 10.1671 19.5099C9.6991 19.03 10.0491 18.1539 10.7121 18.0879ZM20.8661 18.1149C21.4141 17.8889 22.0861 18.3549 22.0441 18.9399C22.0661 19.5829 21.2361 20.0269 20.7011 19.6509C20.0941 19.3139 20.2051 18.3209 20.8661 18.1149ZM23.7041 20.915C23.4901 20.522 23.8791 20.0009 24.3241 20.0739C24.5441 20.0699 24.6991 20.2409 24.8401 20.3849C24.8691 20.6179 24.9181 20.896 24.7211 21.075C24.4541 21.408 23.8491 21.313 23.7041 20.915ZM7.4361 20.183C7.8511 19.912 8.4481 20.3169 8.3541 20.7929C8.3041 21.2159 7.7641 21.4569 7.4091 21.2169C7.0271 20.9999 7.0411 20.3809 7.4361 20.183ZM15.6291 21.0659C16.1721 20.8309 16.8641 21.2959 16.8121 21.884C16.8521 22.534 15.9971 22.9839 15.4661 22.594C14.8761 22.259 14.9751 21.2729 15.6291 21.0659ZM11.8351 21.9369C12.2971 21.6979 12.9171 22.111 12.8751 22.621C12.8891 23.0389 12.4751 23.395 12.0551 23.333C11.7081 23.326 11.4821 23.019 11.3701 22.728C11.3761 22.411 11.5091 22.0579 11.8351 21.9379V21.9369ZM19.5211 21.9449C19.9971 21.6549 20.6731 22.0709 20.6281 22.615C20.6401 23.1849 19.8761 23.549 19.4331 23.1749C19.0051 22.882 19.0571 22.1779 19.5211 21.9449ZM20.8581 25.195C20.6461 24.881 20.8951 24.502 21.2381 24.43C21.5151 24.485 21.8081 24.69 21.7491 25.004C21.7091 25.431 21.0751 25.5609 20.8581 25.1959V25.195ZM10.2471 24.922C10.3311 24.672 10.5351 24.4249 10.8341 24.49C11.2691 24.52 11.3981 25.166 11.0171 25.365C10.6751 25.5919 10.2771 25.281 10.2471 24.922ZM15.3671 25.209C15.4501 24.8389 15.9351 24.66 16.2551 24.856C16.4671 24.946 16.5291 25.1779 16.5831 25.3759C16.5546 25.4788 16.5279 25.5821 16.5031 25.686C16.3721 25.838 16.2031 25.9909 15.9851 25.986C15.5801 26.033 15.2141 25.5819 15.3661 25.209H15.3671Z" fill="white"/>
</g>
<defs>
<filter id="filter0_d_33_1739" x="4.00055" y="5.50037" width="23.9886" height="21.989" filterUnits="userSpaceOnUse" color-interpolation-filters="sRGB">
<feFlood flood-opacity="0" result="BackgroundImageFix"/>
<feColorMatrix in="SourceAlpha" type="matrix" values="0 0 0 0 0 0 0 0 0 0 0 0 0 0 0 0 0 0 127 0" result="hardAlpha"/>
<feOffset dy="0.5"/>
<feGaussianBlur stdDeviation="0.5"/>
<feColorMatrix type="matrix" values="0 0 0 0 0 0 0 0 0 0 0 0 0 0 0 0 0 0 0.204257 0"/>
<feBlend mode="normal" in2="BackgroundImageFix" result="effect1_dropShadow_33_1739"/>
<feBlend mode="normal" in="SourceGraphic" in2="effect1_dropShadow_33_1739" result="shape"/>
</filter>
<clipPath id="clip0_33_1739">
<rect width="32" height="32" fill="white"/>
</clipPath>
</defs>
</svg>
