<svg width="12" height="12" viewBox="0 0 12 12" fill="none" xmlns="http://www.w3.org/2000/svg">
<path d="M10.5 10.5H2.25C1.479 10.5 1 10.021 1 9.25V2C1 1.724 1.224 1.5 1.5 1.5C1.776 1.5 2 1.724 2 2V9.25C2 9.4745 2.0255 9.5 2.25 9.5H10.5C10.776 9.5 11 9.724 11 10C11 10.276 10.776 10.5 10.5 10.5ZM4 8V6.5C4 6.224 3.776 6 3.5 6C3.224 6 3 6.224 3 6.5V8C3 8.276 3.224 8.5 3.5 8.5C3.776 8.5 4 8.276 4 8ZM5.5 8.5C5.224 8.5 5 8.276 5 8V4.5C5 4.224 5.224 4 5.5 4C5.776 4 6 4.224 6 4.5V8C6 8.276 5.776 8.5 5.5 8.5ZM7.5 8.5C7.224 8.5 7 8.276 7 8V5.5C7 5.224 7.224 5 7.5 5C7.776 5 8 5.224 8 5.5V8C8 8.276 7.776 8.5 7.5 8.5ZM9.5 8.5C9.224 8.5 9 8.276 9 8V2.5C9 2.224 9.224 2 9.5 2C9.776 2 10 2.224 10 2.5V8C10 8.276 9.776 8.5 9.5 8.5Z" fill="#B1B5C3"/>
</svg>
