<svg width="160" height="52" viewBox="0 0 160 52" fill="none" xmlns="http://www.w3.org/2000/svg">
<path d="M27.1833 59.7282C42.1962 53.4552 57.12 53.8319 60.5166 60.5697C63.9132 67.3074 54.4964 77.8547 39.4835 84.1278C24.4706 90.4008 9.54679 90.0241 6.15018 83.2863C2.75357 76.5486 12.1704 66.0013 27.1833 59.7282Z" fill="white" fill-opacity="0.05"/>
<path d="M27.1833 17.2143C42.1962 10.9413 57.12 11.318 60.5166 18.0558C63.9132 24.7935 54.4964 35.3408 39.4835 41.6139C24.4706 47.8869 9.54679 47.5102 6.15018 40.7724C2.75357 34.0347 12.1704 23.4874 27.1833 17.2143Z" fill="white" fill-opacity="0.05"/>
<path d="M27.1833 -25.2996C42.1962 -31.5726 57.12 -31.1959 60.5166 -24.4581C63.9132 -17.7204 54.4964 -7.17309 39.4835 -0.900057C24.4706 5.37297 9.54679 4.99625 6.15018 -1.7415C2.75357 -8.47924 12.1704 -19.0266 27.1833 -25.2996Z" fill="white" fill-opacity="0.05"/>
<path d="M93.8503 59.7282C108.863 53.4552 123.787 53.8319 127.184 60.5697C130.58 67.3074 121.163 77.8547 106.151 84.1278C91.1376 90.4008 76.2138 90.0241 72.8172 83.2863C69.4206 76.5486 78.8374 66.0013 93.8503 59.7282Z" fill="white" fill-opacity="0.05"/>
<path d="M93.8498 17.2143C108.863 10.9413 123.787 11.318 127.183 18.0558C130.58 24.7935 121.163 35.3408 106.15 41.6139C91.1371 47.8869 76.2133 47.5102 72.8167 40.7724C69.4201 34.0347 78.8369 23.4874 93.8498 17.2143Z" fill="white" fill-opacity="0.05"/>
<path d="M93.8498 -25.2996C108.863 -31.5726 123.787 -31.1959 127.183 -24.4581C130.58 -17.7204 121.163 -7.17309 106.15 -0.900057C91.1371 5.37297 76.2133 4.99625 72.8167 -1.7415C69.4201 -8.47924 78.8369 -19.0266 93.8498 -25.2996Z" fill="white" fill-opacity="0.05"/>
<path d="M160.517 59.7282C175.53 53.4552 190.454 53.8319 193.85 60.5697C197.247 67.3074 187.83 77.8547 172.817 84.1278C157.804 90.4008 142.88 90.0241 139.484 83.2863C136.087 76.5486 145.504 66.0013 160.517 59.7282Z" fill="white" fill-opacity="0.05"/>
<path d="M160.516 17.2143C175.529 10.9413 190.453 11.318 193.85 18.0558C197.246 24.7935 187.829 35.3408 172.817 41.6139C157.804 47.8869 142.88 47.5102 139.483 40.7724C136.087 34.0347 145.503 23.4874 160.516 17.2143Z" fill="white" fill-opacity="0.05"/>
<path d="M160.517 -25.2996C175.53 -31.5726 190.454 -31.1959 193.85 -24.4581C197.247 -17.7204 187.83 -7.17309 172.817 -0.900057C157.804 5.37297 142.88 4.99625 139.484 -1.7415C136.087 -8.47924 145.504 -19.0266 160.517 -25.2996Z" fill="white" fill-opacity="0.05"/>
</svg>
