<svg width="122" height="52" viewBox="0 0 122 52" fill="none" xmlns="http://www.w3.org/2000/svg">
<path d="M12.8816 1.69357L15.0052 6.13965C16.3044 8.85975 19.4823 10.1165 22.2906 9.02082L27.0147 7.17758L22.4377 9.36077C19.717 10.6586 18.4586 13.8359 19.5528 16.6447L21.3415 21.2357L19.2179 16.7897C17.9187 14.0696 14.7408 12.8128 11.9325 13.9085L7.20843 15.7517L11.7854 13.5685C14.5061 12.2707 15.7645 9.09345 14.6703 6.28464L12.8816 1.69357Z" fill="white"/>
<path d="M111.823 1.14047L109.466 5.46717C108.024 8.11422 108.868 11.4256 111.402 13.0585L115.665 15.8054L111.213 13.377C108.567 11.9335 105.255 12.7764 103.621 15.3094L100.95 19.4498L103.307 15.1231C104.749 12.476 103.905 9.16463 101.371 7.53175L97.1081 4.78487L101.56 7.21324C104.206 8.65679 107.518 7.81384 109.152 5.2808L111.823 1.14047Z" fill="white"/>
<path d="M103.709 43.5366L104.649 45.5145C105.224 46.7245 106.635 47.2859 107.884 46.8014L109.985 45.9863L107.949 46.9526C106.739 47.527 106.177 48.938 106.661 50.1873L107.452 52.2294L106.512 50.2515C105.937 49.0414 104.525 48.48 103.276 48.9646L101.175 49.7796L103.211 48.8133C104.422 48.2389 104.984 46.8279 104.5 45.5786L103.709 43.5366Z" fill="white"/>
<path d="M34.22 38.893L33.5141 41.4242C33.0822 42.9729 33.9184 44.5923 35.4311 45.1369L37.9758 46.0529L35.371 45.3251C33.8226 44.8924 32.2027 45.7278 31.6574 47.2402L30.7661 49.7122L31.472 47.181C31.9039 45.6324 31.0676 44.0129 29.555 43.4684L27.0103 42.5523L29.6151 43.2801C31.1634 43.7128 32.7833 42.8774 33.3287 41.365L34.22 38.893Z" fill="white"/>
</svg>
