<svg width="40" height="56" viewBox="0 0 40 56" fill="none" xmlns="http://www.w3.org/2000/svg">
<g clip-path="url(#clip0_88_856)">
<path d="M30.6319 28.1251C28.5725 28.1251 27.5669 28.8915 27.3754 29.993C27.0879 31.1424 28.0459 31.8609 30.2968 32.3398L32.2123 32.7708C37.4326 33.9203 39.2522 36.5542 38.6297 40.2897C37.8156 45.1266 33.6489 47.8085 27.423 47.8085C21.1972 47.8085 17.3179 45.031 18.3238 38.9007H24.6455C24.3581 41.1517 25.699 42.3487 28.2374 42.3487C30.3924 42.3487 31.6377 41.4867 31.8293 40.2893C32.0208 39.1879 31.1588 38.4694 28.5248 37.8949L26.1783 37.3679C22.0119 36.41 19.713 34.303 20.3355 30.4716C21.1019 25.7783 25.6994 22.6653 31.5422 22.6653C37.3849 22.6653 40.6894 25.8262 39.875 30.6631H33.5056C33.6492 29.0827 32.7872 28.1248 30.6322 28.1248L30.6319 28.1251Z" fill="white"/>
<path d="M9.67383 34.1322H9.86535L17.7672 16.8436H25.2861L13.1218 41.3639H4.02288L0 16.8436H7.51884L9.67383 34.1322Z" fill="white"/>
<path d="M32.9729 0.671722C32.5322 1.84385 32.07 3.00593 31.6011 4.16509C31.1325 5.32393 30.6558 6.4792 30.1723 7.63091C29.2044 9.93432 28.2134 12.2264 27.2017 14.5088C26.1913 16.7918 25.1608 19.065 24.115 21.3309C23.0693 23.597 22.0077 25.8554 20.9315 28.1069C19.8556 30.3585 18.7645 32.603 17.6575 34.8396C16.5502 37.0763 15.4286 39.3058 14.2856 41.5256C13.1443 43.7461 11.9822 45.9565 10.7968 48.1556C10.2038 49.2551 9.6033 50.3511 8.99536 51.4431C8.38743 52.5355 7.77236 53.6244 7.13623 54.7032C7.5763 53.5307 8.03809 52.3683 8.50668 51.2092C8.97527 50.05 9.45131 48.8947 9.93481 47.743C10.9025 45.4396 11.8934 43.1475 12.9051 40.8652C13.9156 38.5822 14.9467 36.3092 15.9928 34.0434C17.0389 31.7776 18.1008 29.5192 19.178 27.2683C20.2548 25.017 21.3463 22.7729 22.4536 20.5363C23.5609 18.2996 24.6834 16.0704 25.8261 13.8506C26.9674 11.6305 28.1295 9.41972 29.3146 7.22065C29.9076 6.12111 30.5074 5.02514 31.1154 3.93274C31.7233 2.84033 32.3377 1.75117 32.9732 0.672046L32.9729 0.671722Z" fill="white"/>
</g>
<defs>
<clipPath id="clip0_88_856">
<rect width="40" height="54.6566" fill="white" transform="translate(0 0.671722)"/>
</clipPath>
</defs>
</svg>
